<svg xmlns="http://www.w3.org/2000/svg" viewBox="0 0 450 300">
  <!-- Title -->
  <text x="225" y="25" text-anchor="middle" font-family="Arial" font-size="16" font-weight="bold">Temperature During the Day</text>

  <!-- Y-axis -->
  <line x1="50" y1="50" x2="50" y2="250" stroke="black" stroke-width="2"/>
  <!-- X-axis -->
  <line x1="50" y1="250" x2="430" y2="250" stroke="black" stroke-width="2"/>

  <!-- Y-axis labels -->
  <text x="30" y="254" text-anchor="end" font-family="Arial" font-size="12">0</text>
  <text x="30" y="214" text-anchor="end" font-family="Arial" font-size="12">5</text>
  <text x="30" y="174" text-anchor="end" font-family="Arial" font-size="12">10</text>
  <text x="30" y="134" text-anchor="end" font-family="Arial" font-size="12">15</text>
  <text x="30" y="94" text-anchor="end" font-family="Arial" font-size="12">20</text>
  <text x="30" y="54" text-anchor="end" font-family="Arial" font-size="12">25</text>

  <!-- Y-axis gridlines -->
  <line x1="50" y1="210" x2="430" y2="210" stroke="#ddd" stroke-width="1"/>
  <line x1="50" y1="170" x2="430" y2="170" stroke="#ddd" stroke-width="1"/>
  <line x1="50" y1="130" x2="430" y2="130" stroke="#ddd" stroke-width="1"/>
  <line x1="50" y1="90" x2="430" y2="90" stroke="#ddd" stroke-width="1"/>
  <line x1="50" y1="50" x2="430" y2="50" stroke="#ddd" stroke-width="1"/>

  <!-- X-axis labels -->
  <text x="90" y="270" text-anchor="middle" font-family="Arial" font-size="12">10am</text>
  <text x="170" y="270" text-anchor="middle" font-family="Arial" font-size="12">12pm</text>
  <text x="250" y="270" text-anchor="middle" font-family="Arial" font-size="12">2pm</text>
  <text x="330" y="270" text-anchor="middle" font-family="Arial" font-size="12">4pm</text>
  <text x="410" y="270" text-anchor="middle" font-family="Arial" font-size="12">6pm</text>

  <!-- Data line -->
  <polyline points="90,138 170,106 250,74 330,90 410,122" fill="none" stroke="blue" stroke-width="2"/>

  <!-- Data points -->
  <circle cx="90" cy="138" r="4" fill="blue"/>
  <circle cx="170" cy="106" r="4" fill="blue"/>
  <circle cx="250" cy="74" r="4" fill="blue"/>
  <circle cx="330" cy="90" r="4" fill="blue"/>
  <circle cx="410" cy="122" r="4" fill="blue"/>
</svg>