<svg width="450" height="300" xmlns="http://www.w3.org/2000/svg">
  <text x="225" y="25" text-anchor="middle" font-family="Arial" font-size="16" font-weight="bold">Plant Growth Over 6 Weeks</text>
  <line x1="50" y1="50" x2="50" y2="250" stroke="black" stroke-width="2"/>
  <line x1="50" y1="250" x2="420" y2="250" stroke="black" stroke-width="2"/>
  <text x="35" y="255" font-family="Arial" font-size="12">0</text>
  <text x="30" y="210" font-family="Arial" font-size="12">5</text>
  <text x="30" y="170" font-family="Arial" font-size="12">10</text>
  <text x="30" y="130" font-family="Arial" font-size="12">15</text>
  <text x="30" y="90" font-family="Arial" font-size="12">20</text>
  <text x="30" y="50" font-family="Arial" font-size="12">25</text>
  <text x="90" y="270" text-anchor="middle" font-family="Arial" font-size="12">Week 1</text>
  <text x="150" y="270" text-anchor="middle" font-family="Arial" font-size="12">Week 2</text>
  <text x="210" y="270" text-anchor="middle" font-family="Arial" font-size="12">Week 3</text>
  <text x="270" y="270" text-anchor="middle" font-family="Arial" font-size="12">Week 4</text>
  <text x="330" y="270" text-anchor="middle" font-family="Arial" font-size="12">Week 5</text>
  <text x="390" y="270" text-anchor="middle" font-family="Arial" font-size="12">Week 6</text>
  <polyline points="90,218 150,170 210,130 270,90 330,58 390,26" fill="none" stroke="green" stroke-width="2"/>
  <circle cx="90" cy="218" r="4" fill="green"/>
  <circle cx="150" cy="170" r="4" fill="green"/>
  <circle cx="210" cy="130" r="4" fill="green"/>
  <circle cx="270" cy="90" r="4" fill="green"/>
  <circle cx="330" cy="58" r="4" fill="green"/>
  <circle cx="390" cy="26" r="4" fill="green"/>
</svg>
