<svg width="300" height="310" xmlns="http://www.w3.org/2000/svg">
  <text x="150" y="25" text-anchor="middle" font-family="Arial" font-size="16" font-weight="bold">Test Scores</text>
  <rect x="50" y="50" width="100" height="40" fill="lightblue" stroke="black" stroke-width="1"/>
  <text x="100" y="75" text-anchor="middle" font-family="Arial" font-size="14" font-weight="bold">Name</text>
  <rect x="150" y="50" width="100" height="40" fill="lightblue" stroke="black" stroke-width="1"/>
  <text x="200" y="75" text-anchor="middle" font-family="Arial" font-size="14" font-weight="bold">Score</text>
  <rect x="50" y="90" width="100" height="40" fill="white" stroke="black" stroke-width="1"/>
  <text x="100" y="115" text-anchor="middle" font-family="Arial" font-size="14">Alice</text>
  <rect x="150" y="90" width="100" height="40" fill="white" stroke="black" stroke-width="1"/>
  <text x="200" y="115" text-anchor="middle" font-family="Arial" font-size="14">58</text>
  <rect x="50" y="130" width="100" height="40" fill="white" stroke="black" stroke-width="1"/>
  <text x="100" y="155" text-anchor="middle" font-family="Arial" font-size="14">Ben</text>
  <rect x="150" y="130" width="100" height="40" fill="white" stroke="black" stroke-width="1"/>
  <text x="200" y="155" text-anchor="middle" font-family="Arial" font-size="14">62</text>
  <rect x="50" y="170" width="100" height="40" fill="white" stroke="black" stroke-width="1"/>
  <text x="100" y="195" text-anchor="middle" font-family="Arial" font-size="14">Charlie</text>
  <rect x="150" y="170" width="100" height="40" fill="white" stroke="black" stroke-width="1"/>
  <text x="200" y="195" text-anchor="middle" font-family="Arial" font-size="14">66</text>
  <rect x="50" y="210" width="100" height="40" fill="white" stroke="black" stroke-width="1"/>
  <text x="100" y="235" text-anchor="middle" font-family="Arial" font-size="14">Daisy</text>
  <rect x="150" y="210" width="100" height="40" fill="white" stroke="black" stroke-width="1"/>
  <text x="200" y="235" text-anchor="middle" font-family="Arial" font-size="14">70</text>
  <rect x="50" y="250" width="100" height="40" fill="white" stroke="black" stroke-width="1"/>
  <text x="100" y="275" text-anchor="middle" font-family="Arial" font-size="14">Ethan</text>
  <rect x="150" y="250" width="100" height="40" fill="white" stroke="black" stroke-width="1"/>
  <text x="200" y="275" text-anchor="middle" font-family="Arial" font-size="14">74</text>
</svg>