<svg width="500" height="250" xmlns="http://www.w3.org/2000/svg">
  <text x="250" y="25" text-anchor="middle" font-family="Arial" font-size="16" font-weight="bold">Activity Preferences</text>
  <rect x="50" y="50" width="100" height="40" fill="lightblue" stroke="black" stroke-width="1"/>
  <text x="100" y="75" text-anchor="middle" font-family="Arial" font-size="14" font-weight="bold">Activity</text>
  <rect x="150" y="50" width="100" height="40" fill="lightblue" stroke="black" stroke-width="1"/>
  <text x="200" y="75" text-anchor="middle" font-family="Arial" font-size="14" font-weight="bold">Children</text>
  <rect x="250" y="50" width="100" height="40" fill="lightblue" stroke="black" stroke-width="1"/>
  <text x="300" y="75" text-anchor="middle" font-family="Arial" font-size="14" font-weight="bold">Teenagers</text>
  <rect x="350" y="50" width="100" height="40" fill="lightblue" stroke="black" stroke-width="1"/>
  <text x="400" y="75" text-anchor="middle" font-family="Arial" font-size="14" font-weight="bold">Adults</text>
  <rect x="50" y="90" width="100" height="40" fill="white" stroke="black" stroke-width="1"/>
  <text x="100" y="115" text-anchor="middle" font-family="Arial" font-size="14">Reading</text>
  <rect x="150" y="90" width="100" height="40" fill="white" stroke="black" stroke-width="1"/>
  <text x="200" y="115" text-anchor="middle" font-family="Arial" font-size="14">15</text>
  <rect x="250" y="90" width="100" height="40" fill="white" stroke="black" stroke-width="1"/>
  <text x="300" y="115" text-anchor="middle" font-family="Arial" font-size="14">20</text>
  <rect x="350" y="90" width="100" height="40" fill="white" stroke="black" stroke-width="1"/>
  <text x="400" y="115" text-anchor="middle" font-family="Arial" font-size="14">25</text>
  <rect x="50" y="130" width="100" height="40" fill="white" stroke="black" stroke-width="1"/>
  <text x="100" y="155" text-anchor="middle" font-family="Arial" font-size="14">Sport</text>
  <rect x="150" y="130" width="100" height="40" fill="white" stroke="black" stroke-width="1"/>
  <text x="200" y="155" text-anchor="middle" font-family="Arial" font-size="14">25</text>
  <rect x="250" y="130" width="100" height="40" fill="white" stroke="black" stroke-width="1"/>
  <text x="300" y="155" text-anchor="middle" font-family="Arial" font-size="14">20</text>
  <rect x="350" y="130" width="100" height="40" fill="white" stroke="black" stroke-width="1"/>
  <text x="400" y="155" text-anchor="middle" font-family="Arial" font-size="14">15</text>
  <rect x="50" y="170" width="100" height="40" fill="white" stroke="black" stroke-width="1"/>
  <text x="100" y="195" text-anchor="middle" font-family="Arial" font-size="14">Gaming</text>
  <rect x="150" y="170" width="100" height="40" fill="white" stroke="black" stroke-width="1"/>
  <text x="200" y="195" text-anchor="middle" font-family="Arial" font-size="14">20</text>
  <rect x="250" y="170" width="100" height="40" fill="white" stroke="black" stroke-width="1"/>
  <text x="300" y="195" text-anchor="middle" font-family="Arial" font-size="14">15</text>
  <rect x="350" y="170" width="100" height="40" fill="white" stroke="black" stroke-width="1"/>
  <text x="400" y="195" text-anchor="middle" font-family="Arial" font-size="14">15</text>
</svg>