<svg width="400" height="250" xmlns="http://www.w3.org/2000/svg">
  <text x="200" y="25" text-anchor="middle" font-family="Arial" font-size="16" font-weight="bold">Food Preferences</text>
  <rect x="50" y="50" width="100" height="40" fill="lightblue" stroke="black" stroke-width="1"/>
  <text x="100" y="75" text-anchor="middle" font-family="Arial" font-size="14" font-weight="bold">Food</text>
  <rect x="150" y="50" width="100" height="40" fill="lightblue" stroke="black" stroke-width="1"/>
  <text x="200" y="75" text-anchor="middle" font-family="Arial" font-size="14" font-weight="bold">Children</text>
  <rect x="250" y="50" width="100" height="40" fill="lightblue" stroke="black" stroke-width="1"/>
  <text x="300" y="75" text-anchor="middle" font-family="Arial" font-size="14" font-weight="bold">Adults</text>
  <rect x="50" y="90" width="100" height="40" fill="white" stroke="black" stroke-width="1"/>
  <text x="100" y="115" text-anchor="middle" font-family="Arial" font-size="14">Pizza</text>
  <rect x="150" y="90" width="100" height="40" fill="white" stroke="black" stroke-width="1"/>
  <text x="200" y="115" text-anchor="middle" font-family="Arial" font-size="14">24</text>
  <rect x="250" y="90" width="100" height="40" fill="white" stroke="black" stroke-width="1"/>
  <text x="300" y="115" text-anchor="middle" font-family="Arial" font-size="14">20</text>
  <rect x="50" y="130" width="100" height="40" fill="white" stroke="black" stroke-width="1"/>
  <text x="100" y="155" text-anchor="middle" font-family="Arial" font-size="14">Burgers</text>
  <rect x="150" y="130" width="100" height="40" fill="white" stroke="black" stroke-width="1"/>
  <text x="200" y="155" text-anchor="middle" font-family="Arial" font-size="14">18</text>
  <rect x="250" y="130" width="100" height="40" fill="white" stroke="black" stroke-width="1"/>
  <text x="300" y="155" text-anchor="middle" font-family="Arial" font-size="14">16</text>
  <rect x="50" y="170" width="100" height="40" fill="white" stroke="black" stroke-width="1"/>
  <text x="100" y="195" text-anchor="middle" font-family="Arial" font-size="14">Salad</text>
  <rect x="150" y="170" width="100" height="40" fill="white" stroke="black" stroke-width="1"/>
  <text x="200" y="195" text-anchor="middle" font-family="Arial" font-size="14">10</text>
  <rect x="250" y="170" width="100" height="40" fill="white" stroke="black" stroke-width="1"/>
  <text x="300" y="195" text-anchor="middle" font-family="Arial" font-size="14">12</text>
</svg>