<svg xmlns="http://www.w3.org/2000/svg" width="400" height="300" viewBox="0 0 400 300">
  <!-- Background -->
  <rect width="400" height="300" fill="white"/>

  <!-- Title -->
  <text x="200" y="22" text-anchor="middle" font-family="Arial" font-size="14" font-weight="bold" fill="#333">Car Park Floors</text>

  <!-- Ground level line -->
  <line x1="80" y1="172" x2="320" y2="172" stroke="#2ECC71" stroke-width="2.5" stroke-dasharray="6,3"/>
  <text x="335" y="176" font-family="Arial" font-size="11" font-weight="bold" fill="#2ECC71">Ground</text>

  <!-- Building outline -->
  <rect x="110" y="32" width="180" height="248" fill="none" stroke="#666" stroke-width="2"/>

  <!-- Floor 3 (above ground) - light blue -->
  <rect x="111" y="33" width="178" height="46" fill="#E8F4FD" stroke="#B0C4DE" stroke-width="0.5"/>
  <text x="200" y="60" text-anchor="middle" font-family="Arial" font-size="13" fill="#555">Floor 3</text>
  <!-- Windows -->
  <rect x="135" y="42" width="20" height="25" rx="2" fill="#AED6F1" stroke="#7FB3D8" stroke-width="1"/>
  <rect x="190" y="42" width="20" height="25" rx="2" fill="#AED6F1" stroke="#7FB3D8" stroke-width="1"/>
  <rect x="245" y="42" width="20" height="25" rx="2" fill="#AED6F1" stroke="#7FB3D8" stroke-width="1"/>

  <!-- Floor 2 (above ground) - light blue -->
  <rect x="111" y="79" width="178" height="46" fill="#E8F4FD" stroke="#B0C4DE" stroke-width="0.5"/>
  <text x="200" y="106" text-anchor="middle" font-family="Arial" font-size="13" fill="#555">Floor 2</text>
  <rect x="135" y="88" width="20" height="25" rx="2" fill="#AED6F1" stroke="#7FB3D8" stroke-width="1"/>
  <rect x="190" y="88" width="20" height="25" rx="2" fill="#AED6F1" stroke="#7FB3D8" stroke-width="1"/>
  <rect x="245" y="88" width="20" height="25" rx="2" fill="#AED6F1" stroke="#7FB3D8" stroke-width="1"/>

  <!-- Floor 1 (above ground) - light blue -->
  <rect x="111" y="125" width="178" height="46" fill="#E8F4FD" stroke="#B0C4DE" stroke-width="0.5"/>
  <text x="200" y="152" text-anchor="middle" font-family="Arial" font-size="13" fill="#555">Floor 1</text>
  <rect x="135" y="134" width="20" height="25" rx="2" fill="#AED6F1" stroke="#7FB3D8" stroke-width="1"/>
  <rect x="190" y="134" width="20" height="25" rx="2" fill="#AED6F1" stroke="#7FB3D8" stroke-width="1"/>
  <rect x="245" y="134" width="20" height="25" rx="2" fill="#AED6F1" stroke="#7FB3D8" stroke-width="1"/>

  <!-- Floor 0 / Ground (the dividing floor) -->
  <rect x="111" y="171" width="178" height="2" fill="#2ECC71"/>

  <!-- Floor -1 (below ground) - light brown -->
  <rect x="111" y="173" width="178" height="53" fill="#F5E6D3" stroke="#D4B896" stroke-width="0.5"/>
  <text x="200" y="204" text-anchor="middle" font-family="Arial" font-size="13" fill="#8B7355">Floor -1</text>
  <!-- Parking symbols -->
  <text x="145" y="204" text-anchor="middle" font-family="Arial" font-size="16" fill="#C4A57B">P</text>
  <text x="255" y="204" text-anchor="middle" font-family="Arial" font-size="16" fill="#C4A57B">P</text>

  <!-- Floor -2 (below ground) - light brown -->
  <rect x="111" y="226" width="178" height="53" fill="#F5E6D3" stroke="#D4B896" stroke-width="0.5"/>
  <text x="200" y="257" text-anchor="middle" font-family="Arial" font-size="13" fill="#8B7355">Floor -2</text>
  <text x="145" y="257" text-anchor="middle" font-family="Arial" font-size="16" fill="#C4A57B">P</text>
  <text x="255" y="257" text-anchor="middle" font-family="Arial" font-size="16" fill="#C4A57B">P</text>

  <!-- Floor number labels on left side -->
  <text x="96" y="60" text-anchor="end" font-family="Arial" font-size="14" font-weight="bold" fill="#2E86C1">3</text>
  <text x="96" y="106" text-anchor="end" font-family="Arial" font-size="14" font-weight="bold" fill="#2E86C1">2</text>
  <text x="96" y="152" text-anchor="end" font-family="Arial" font-size="14" font-weight="bold" fill="#2E86C1">1</text>
  <text x="96" y="176" text-anchor="end" font-family="Arial" font-size="14" font-weight="bold" fill="#2ECC71">0</text>
  <text x="96" y="204" text-anchor="end" font-family="Arial" font-size="14" font-weight="bold" fill="#C0392B">-1</text>
  <text x="96" y="257" text-anchor="end" font-family="Arial" font-size="14" font-weight="bold" fill="#C0392B">-2</text>

  <!-- Question mark arrow pointing to -2 -->
  <rect x="300" y="240" width="30" height="22" rx="4" fill="#E67E22" opacity="0.15"/>
  <text x="315" y="256" text-anchor="middle" font-family="Arial" font-size="16" font-weight="bold" fill="#E67E22">?</text>
</svg>