<svg xmlns="http://www.w3.org/2000/svg" width="400" height="300" viewBox="0 0 400 300">
  <!-- Background -->
  <rect width="400" height="300" fill="white"/>

  <!-- Title -->
  <text x="200" y="25" text-anchor="middle" font-family="Arial" font-size="14" font-weight="bold" fill="#333">Temperature Difference</text>

  <!-- Thermometer outer tube -->
  <rect x="145" y="38" width="30" height="220" rx="15" ry="15" fill="#E8E8E8" stroke="#999" stroke-width="1.5"/>

  <!-- Thermometer bulb -->
  <circle cx="160" cy="268" r="22" fill="#E8E8E8" stroke="#999" stroke-width="1.5"/>

  <!-- Mercury in bulb -->
  <circle cx="160" cy="268" r="18" fill="#CC3333"/>

  <!-- Mercury column up to 3 degrees (showing higher temp for visual) -->
  <!-- Scale: -10 at bottom (y=245), 10 at top (y=45). Each degree = 10px -->
  <!-- 3 degrees = y=245 - 13*10 = y=115 -->
  <rect x="152" y="115" width="16" height="143" fill="#CC3333"/>

  <!-- Scale markings and labels (left side) -->
  <!-- 10 degrees -->
  <line x1="125" y1="45" x2="145" y2="45" stroke="#666" stroke-width="1"/>
  <text x="115" y="49" text-anchor="end" font-family="Arial" font-size="12" fill="#333">10</text>

  <!-- 5 degrees -->
  <line x1="125" y1="95" x2="145" y2="95" stroke="#666" stroke-width="1"/>
  <text x="115" y="99" text-anchor="end" font-family="Arial" font-size="12" fill="#333">5</text>

  <!-- 4 degrees -->
  <line x1="130" y1="105" x2="145" y2="105" stroke="#999" stroke-width="0.5"/>

  <!-- 3 degrees -->
  <line x1="125" y1="115" x2="145" y2="115" stroke="#666" stroke-width="1"/>

  <!-- 2 degrees -->
  <line x1="130" y1="125" x2="145" y2="125" stroke="#999" stroke-width="0.5"/>

  <!-- 0 degrees -->
  <line x1="125" y1="145" x2="145" y2="145" stroke="#666" stroke-width="1.5"/>
  <text x="115" y="149" text-anchor="end" font-family="Arial" font-size="12" font-weight="bold" fill="#333">0</text>

  <!-- -2 degrees -->
  <line x1="130" y1="165" x2="145" y2="165" stroke="#999" stroke-width="0.5"/>

  <!-- -3 degrees -->
  <line x1="125" y1="175" x2="145" y2="175" stroke="#666" stroke-width="1"/>

  <!-- -4 degrees -->
  <line x1="125" y1="185" x2="145" y2="185" stroke="#666" stroke-width="1"/>

  <!-- -5 degrees -->
  <line x1="125" y1="195" x2="145" y2="195" stroke="#666" stroke-width="1"/>
  <text x="115" y="199" text-anchor="end" font-family="Arial" font-size="12" fill="#333">-5</text>

  <!-- -6 degrees -->
  <line x1="130" y1="205" x2="145" y2="205" stroke="#999" stroke-width="0.5"/>

  <!-- -8 degrees -->
  <line x1="130" y1="225" x2="145" y2="225" stroke="#999" stroke-width="0.5"/>

  <!-- -10 degrees -->
  <line x1="125" y1="245" x2="145" y2="245" stroke="#666" stroke-width="1"/>
  <text x="115" y="249" text-anchor="end" font-family="Arial" font-size="12" fill="#333">-10</text>

  <!-- Arrow pointing to 3°C -->
  <line x1="180" y1="115" x2="210" y2="115" stroke="#CC3333" stroke-width="1.5"/>
  <polygon points="178,115 186,111 186,119" fill="#CC3333"/>
  <text x="215" y="119" font-family="Arial" font-size="13" font-weight="bold" fill="#CC3333">3°C</text>

  <!-- Arrow pointing to -4°C -->
  <line x1="180" y1="185" x2="210" y2="185" stroke="#2E86C1" stroke-width="1.5"/>
  <polygon points="178,185 186,181 186,189" fill="#2E86C1"/>
  <text x="215" y="189" font-family="Arial" font-size="13" font-weight="bold" fill="#2E86C1">-4°C</text>

  <!-- Bracket showing difference -->
  <path d="M 280,115 C 290,115 290,115 290,125 L 290,145 C 290,150 295,150 295,150 C 290,150 290,150 290,155 L 290,175 C 290,185 280,185 280,185" fill="none" stroke="#E67E22" stroke-width="2"/>

  <!-- Difference label -->
  <text x="305" y="145" font-family="Arial" font-size="15" font-weight="bold" fill="#E67E22">?°C</text>

  <!-- Small marks on bracket ends -->
  <line x1="275" y1="115" x2="285" y2="115" stroke="#E67E22" stroke-width="2"/>
  <line x1="275" y1="185" x2="285" y2="185" stroke="#E67E22" stroke-width="2"/>

  <!-- Degree label -->
  <text x="160" y="35" text-anchor="middle" font-family="Arial" font-size="11" fill="#666">°C</text>
</svg>