<svg xmlns="http://www.w3.org/2000/svg" width="400" height="300" viewBox="0 0 400 300">

  <!-- Thermometer outer tube -->
  <rect x="145" y="38" width="30" height="220" rx="15" ry="15" fill="#bfdbfe" stroke="#3b82f6" stroke-width="2.5"/>

  <!-- Thermometer bulb -->
  <circle cx="160" cy="268" r="22" fill="#bfdbfe" stroke="#3b82f6" stroke-width="2.5"/>

  <!-- Mercury in bulb -->
  <circle cx="160" cy="268" r="18" fill="#f87171"/>

  <!-- Mercury column up to 3 degrees (showing higher temp for visual) -->
  <!-- Scale: -10 at bottom (y=245), 10 at top (y=45). Each degree = 10px -->
  <!-- 3 degrees = y=245 - 13*10 = y=115 -->
  <rect x="152" y="115" width="16" height="143" fill="#f87171"/>

  <!-- Scale markings and labels (left side) -->
  <!-- 10 degrees -->
  <line x1="125" y1="45" x2="145" y2="45" stroke="#3b82f6" stroke-width="2"/>
  <text x="115" y="50" text-anchor="end" font-family="system-ui, -apple-system, sans-serif" font-size="14" font-weight="bold" fill="#6366f1">10</text>

  <!-- 5 degrees -->
  <line x1="125" y1="95" x2="145" y2="95" stroke="#3b82f6" stroke-width="2"/>
  <text x="115" y="100" text-anchor="end" font-family="system-ui, -apple-system, sans-serif" font-size="14" font-weight="bold" fill="#6366f1">5</text>

  <!-- 4 degrees -->
  <line x1="133" y1="105" x2="145" y2="105" stroke="#93c5fd" stroke-width="1.5"/>

  <!-- 3 degrees -->
  <line x1="125" y1="115" x2="145" y2="115" stroke="#3b82f6" stroke-width="2"/>

  <!-- 2 degrees -->
  <line x1="133" y1="125" x2="145" y2="125" stroke="#93c5fd" stroke-width="1.5"/>

  <!-- 0 degrees -->
  <line x1="125" y1="145" x2="145" y2="145" stroke="#3b82f6" stroke-width="2.5"/>
  <text x="115" y="150" text-anchor="end" font-family="system-ui, -apple-system, sans-serif" font-size="14" font-weight="bold" fill="#6366f1">0</text>

  <!-- -2 degrees -->
  <line x1="133" y1="165" x2="145" y2="165" stroke="#93c5fd" stroke-width="1.5"/>

  <!-- -3 degrees -->
  <line x1="125" y1="175" x2="145" y2="175" stroke="#3b82f6" stroke-width="2"/>

  <!-- -4 degrees -->
  <line x1="125" y1="185" x2="145" y2="185" stroke="#3b82f6" stroke-width="2"/>

  <!-- -5 degrees -->
  <line x1="125" y1="195" x2="145" y2="195" stroke="#3b82f6" stroke-width="2"/>
  <text x="115" y="200" text-anchor="end" font-family="system-ui, -apple-system, sans-serif" font-size="14" font-weight="bold" fill="#6366f1">-5</text>

  <!-- -6 degrees -->
  <line x1="133" y1="205" x2="145" y2="205" stroke="#93c5fd" stroke-width="1.5"/>

  <!-- -8 degrees -->
  <line x1="133" y1="225" x2="145" y2="225" stroke="#93c5fd" stroke-width="1.5"/>

  <!-- -10 degrees -->
  <line x1="125" y1="245" x2="145" y2="245" stroke="#3b82f6" stroke-width="2"/>
  <text x="115" y="250" text-anchor="end" font-family="system-ui, -apple-system, sans-serif" font-size="14" font-weight="bold" fill="#6366f1">-10</text>

  <!-- Arrow pointing to 3°C -->
  <line x1="180" y1="115" x2="210" y2="115" stroke="#6366f1" stroke-width="1.5"/>
  <polygon points="178,115 186,111 186,119" fill="#6366f1"/>
  <text x="215" y="120" font-family="system-ui, -apple-system, sans-serif" font-size="14" font-weight="bold" fill="#dc2626">3°C</text>

  <!-- Arrow pointing to -4°C -->
  <line x1="180" y1="185" x2="210" y2="185" stroke="#6366f1" stroke-width="1.5"/>
  <polygon points="178,185 186,181 186,189" fill="#6366f1"/>
  <text x="215" y="190" font-family="system-ui, -apple-system, sans-serif" font-size="14" font-weight="bold" fill="#dc2626">-4°C</text>

  <!-- Bracket showing difference -->
  <path d="M 280,115 C 290,115 290,115 290,125 L 290,145 C 290,150 295,150 295,150 C 290,150 290,150 290,155 L 290,175 C 290,185 280,185 280,185" fill="none" stroke="#f97316" stroke-width="2"/>

  <!-- Difference label -->
  <text x="305" y="145" font-family="system-ui, -apple-system, sans-serif" font-size="15" font-weight="bold" fill="#f97316">?°C</text>

  <!-- Small marks on bracket ends -->
  <line x1="275" y1="115" x2="285" y2="115" stroke="#f97316" stroke-width="2"/>
  <line x1="275" y1="185" x2="285" y2="185" stroke="#f97316" stroke-width="2"/>

  <!-- Degree label -->
  <text x="160" y="28" text-anchor="middle" font-family="system-ui, -apple-system, sans-serif" font-size="14" font-weight="bold" fill="#6366f1">°C</text>
</svg>