<svg xmlns="http://www.w3.org/2000/svg" viewBox="0 0 400 300" width="400" height="300">
  <style>
    text { font-family: Arial, sans-serif; fill: #333; }
  </style>

  <!-- Title -->
  <text x="200" y="28" text-anchor="middle" font-size="16" font-weight="bold">Growing Stack Pattern</text>
  <text x="200" y="48" text-anchor="middle" font-size="13" fill="#555">+6 books each week</text>

  <!-- Baseline -->
  <line x1="10" y1="230" x2="390" y2="230" stroke="#999" stroke-width="1"/>

  <!-- Week 1: 6 blocks -->
  <rect x="22" y="80" width="40" height="25" fill="#87CEEB" stroke="black" stroke-width="1.5" rx="3"/>
  <rect x="22" y="105" width="40" height="25" fill="#87CEEB" stroke="black" stroke-width="1.5" rx="3"/>
  <rect x="22" y="130" width="40" height="25" fill="#87CEEB" stroke="black" stroke-width="1.5" rx="3"/>
  <rect x="22" y="155" width="40" height="25" fill="#87CEEB" stroke="black" stroke-width="1.5" rx="3"/>
  <rect x="22" y="180" width="40" height="25" fill="#87CEEB" stroke="black" stroke-width="1.5" rx="3"/>
  <rect x="22" y="205" width="40" height="25" fill="#87CEEB" stroke="black" stroke-width="1.5" rx="3"/>
  <!-- Count on blocks -->
  <text x="42" y="97" text-anchor="middle" font-size="10" fill="#444">6</text>
  <text x="42" y="122" text-anchor="middle" font-size="10" fill="#444">5</text>
  <text x="42" y="147" text-anchor="middle" font-size="10" fill="#444">4</text>
  <text x="42" y="172" text-anchor="middle" font-size="10" fill="#444">3</text>
  <text x="42" y="197" text-anchor="middle" font-size="10" fill="#444">2</text>
  <text x="42" y="222" text-anchor="middle" font-size="10" fill="#444">1</text>
  <text x="42" y="248" text-anchor="middle" font-size="13" font-weight="bold">Week 1</text>
  <text x="42" y="266" text-anchor="middle" font-size="14" font-weight="bold" fill="#555">6</text>

  <!-- Week 2: 12 blocks -->
  <rect x="110" y="80" width="40" height="25" fill="#87CEEB" stroke="black" stroke-width="1.5" rx="3"/>
  <rect x="110" y="105" width="40" height="25" fill="#87CEEB" stroke="black" stroke-width="1.5" rx="3"/>
  <rect x="110" y="130" width="40" height="25" fill="#87CEEB" stroke="black" stroke-width="1.5" rx="3"/>
  <rect x="110" y="155" width="40" height="25" fill="#87CEEB" stroke="black" stroke-width="1.5" rx="3"/>
  <rect x="110" y="180" width="40" height="25" fill="#87CEEB" stroke="black" stroke-width="1.5" rx="3"/>
  <rect x="110" y="205" width="40" height="25" fill="#87CEEB" stroke="black" stroke-width="1.5" rx="3"/>
  <!-- New books (darker shade) -->
  <rect x="150" y="80" width="40" height="25" fill="#6BB3D9" stroke="black" stroke-width="1.5" rx="3"/>
  <rect x="150" y="105" width="40" height="25" fill="#6BB3D9" stroke="black" stroke-width="1.5" rx="3"/>
  <rect x="150" y="130" width="40" height="25" fill="#6BB3D9" stroke="black" stroke-width="1.5" rx="3"/>
  <rect x="150" y="155" width="40" height="25" fill="#6BB3D9" stroke="black" stroke-width="1.5" rx="3"/>
  <rect x="150" y="180" width="40" height="25" fill="#6BB3D9" stroke="black" stroke-width="1.5" rx="3"/>
  <rect x="150" y="205" width="40" height="25" fill="#6BB3D9" stroke="black" stroke-width="1.5" rx="3"/>
  <text x="150" y="248" text-anchor="middle" font-size="13" font-weight="bold">Week 2</text>
  <text x="150" y="266" text-anchor="middle" font-size="14" font-weight="bold" fill="#555">12</text>

  <!-- Week 3: 18 blocks (3 columns of 6) -->
  <rect x="218" y="80" width="26" height="25" fill="#87CEEB" stroke="black" stroke-width="1.5" rx="3"/>
  <rect x="218" y="105" width="26" height="25" fill="#87CEEB" stroke="black" stroke-width="1.5" rx="3"/>
  <rect x="218" y="130" width="26" height="25" fill="#87CEEB" stroke="black" stroke-width="1.5" rx="3"/>
  <rect x="218" y="155" width="26" height="25" fill="#87CEEB" stroke="black" stroke-width="1.5" rx="3"/>
  <rect x="218" y="180" width="26" height="25" fill="#87CEEB" stroke="black" stroke-width="1.5" rx="3"/>
  <rect x="218" y="205" width="26" height="25" fill="#87CEEB" stroke="black" stroke-width="1.5" rx="3"/>
  <rect x="244" y="80" width="26" height="25" fill="#87CEEB" stroke="black" stroke-width="1.5" rx="3"/>
  <rect x="244" y="105" width="26" height="25" fill="#87CEEB" stroke="black" stroke-width="1.5" rx="3"/>
  <rect x="244" y="130" width="26" height="25" fill="#87CEEB" stroke="black" stroke-width="1.5" rx="3"/>
  <rect x="244" y="155" width="26" height="25" fill="#87CEEB" stroke="black" stroke-width="1.5" rx="3"/>
  <rect x="244" y="180" width="26" height="25" fill="#87CEEB" stroke="black" stroke-width="1.5" rx="3"/>
  <rect x="244" y="205" width="26" height="25" fill="#87CEEB" stroke="black" stroke-width="1.5" rx="3"/>
  <rect x="270" y="80" width="26" height="25" fill="#6BB3D9" stroke="black" stroke-width="1.5" rx="3"/>
  <rect x="270" y="105" width="26" height="25" fill="#6BB3D9" stroke="black" stroke-width="1.5" rx="3"/>
  <rect x="270" y="130" width="26" height="25" fill="#6BB3D9" stroke="black" stroke-width="1.5" rx="3"/>
  <rect x="270" y="155" width="26" height="25" fill="#6BB3D9" stroke="black" stroke-width="1.5" rx="3"/>
  <rect x="270" y="180" width="26" height="25" fill="#6BB3D9" stroke="black" stroke-width="1.5" rx="3"/>
  <rect x="270" y="205" width="26" height="25" fill="#6BB3D9" stroke="black" stroke-width="1.5" rx="3"/>
  <text x="257" y="248" text-anchor="middle" font-size="13" font-weight="bold">Week 3</text>
  <text x="257" y="266" text-anchor="middle" font-size="14" font-weight="bold" fill="#555">18</text>

  <!-- Week 4: 24 blocks (4 columns of 6) -->
  <rect x="316" y="80" width="18" height="25" fill="#87CEEB" stroke="black" stroke-width="1.5" rx="2"/>
  <rect x="316" y="105" width="18" height="25" fill="#87CEEB" stroke="black" stroke-width="1.5" rx="2"/>
  <rect x="316" y="130" width="18" height="25" fill="#87CEEB" stroke="black" stroke-width="1.5" rx="2"/>
  <rect x="316" y="155" width="18" height="25" fill="#87CEEB" stroke="black" stroke-width="1.5" rx="2"/>
  <rect x="316" y="180" width="18" height="25" fill="#87CEEB" stroke="black" stroke-width="1.5" rx="2"/>
  <rect x="316" y="205" width="18" height="25" fill="#87CEEB" stroke="black" stroke-width="1.5" rx="2"/>
  <rect x="334" y="80" width="18" height="25" fill="#87CEEB" stroke="black" stroke-width="1.5" rx="2"/>
  <rect x="334" y="105" width="18" height="25" fill="#87CEEB" stroke="black" stroke-width="1.5" rx="2"/>
  <rect x="334" y="130" width="18" height="25" fill="#87CEEB" stroke="black" stroke-width="1.5" rx="2"/>
  <rect x="334" y="155" width="18" height="25" fill="#87CEEB" stroke="black" stroke-width="1.5" rx="2"/>
  <rect x="334" y="180" width="18" height="25" fill="#87CEEB" stroke="black" stroke-width="1.5" rx="2"/>
  <rect x="334" y="205" width="18" height="25" fill="#87CEEB" stroke="black" stroke-width="1.5" rx="2"/>
  <rect x="352" y="80" width="18" height="25" fill="#87CEEB" stroke="black" stroke-width="1.5" rx="2"/>
  <rect x="352" y="105" width="18" height="25" fill="#87CEEB" stroke="black" stroke-width="1.5" rx="2"/>
  <rect x="352" y="130" width="18" height="25" fill="#87CEEB" stroke="black" stroke-width="1.5" rx="2"/>
  <rect x="352" y="155" width="18" height="25" fill="#87CEEB" stroke="black" stroke-width="1.5" rx="2"/>
  <rect x="352" y="180" width="18" height="25" fill="#87CEEB" stroke="black" stroke-width="1.5" rx="2"/>
  <rect x="352" y="205" width="18" height="25" fill="#87CEEB" stroke="black" stroke-width="1.5" rx="2"/>
  <rect x="370" y="80" width="18" height="25" fill="#6BB3D9" stroke="black" stroke-width="1.5" rx="2"/>
  <rect x="370" y="105" width="18" height="25" fill="#6BB3D9" stroke="black" stroke-width="1.5" rx="2"/>
  <rect x="370" y="130" width="18" height="25" fill="#6BB3D9" stroke="black" stroke-width="1.5" rx="2"/>
  <rect x="370" y="155" width="18" height="25" fill="#6BB3D9" stroke="black" stroke-width="1.5" rx="2"/>
  <rect x="370" y="180" width="18" height="25" fill="#6BB3D9" stroke="black" stroke-width="1.5" rx="2"/>
  <rect x="370" y="205" width="18" height="25" fill="#6BB3D9" stroke="black" stroke-width="1.5" rx="2"/>
  <text x="361" y="248" text-anchor="middle" font-size="13" font-weight="bold">Week 4</text>
  <text x="361" y="266" text-anchor="middle" font-size="14" font-weight="bold" fill="#555">24</text>

  <!-- +6 arrows -->
  <text x="96" y="68" text-anchor="middle" font-size="12" fill="red" font-weight="bold">+6</text>
  <text x="204" y="68" text-anchor="middle" font-size="12" fill="red" font-weight="bold">+6</text>
  <text x="310" y="68" text-anchor="middle" font-size="12" fill="red" font-weight="bold">+6</text>
</svg>