<svg xmlns="http://www.w3.org/2000/svg" viewBox="0 0 400 300" width="400" height="300">
  <style>
    text { font-family: Arial, sans-serif; fill: #333; }
  </style>

  <!-- Title -->
  <text x="200" y="28" text-anchor="middle" font-size="16" font-weight="bold">Rectangular Numbers</text>
  <text x="200" y="48" text-anchor="middle" font-size="13" fill="#555">2, 6, 12, 20, ?, 42</text>

  <!-- 1×2 = 2 -->
  <rect x="16" y="110" width="24" height="24" fill="#87CEEB" stroke="black" stroke-width="1.5" rx="2"/>
  <rect x="16" y="134" width="24" height="24" fill="#87CEEB" stroke="black" stroke-width="1.5" rx="2"/>
  <!-- Dots inside -->
  <circle cx="28" cy="122" r="4" fill="#333"/>
  <circle cx="28" cy="146" r="4" fill="#333"/>
  <text x="28" y="180" text-anchor="middle" font-size="14" font-weight="bold">2</text>
  <text x="28" y="198" text-anchor="middle" font-size="11" fill="#666">1×2</text>

  <!-- 2×3 = 6 -->
  <rect x="62" y="98" width="24" height="24" fill="#87CEEB" stroke="black" stroke-width="1.5" rx="2"/>
  <rect x="86" y="98" width="24" height="24" fill="#87CEEB" stroke="black" stroke-width="1.5" rx="2"/>
  <rect x="62" y="122" width="24" height="24" fill="#87CEEB" stroke="black" stroke-width="1.5" rx="2"/>
  <rect x="86" y="122" width="24" height="24" fill="#87CEEB" stroke="black" stroke-width="1.5" rx="2"/>
  <rect x="62" y="146" width="24" height="24" fill="#87CEEB" stroke="black" stroke-width="1.5" rx="2"/>
  <rect x="86" y="146" width="24" height="24" fill="#87CEEB" stroke="black" stroke-width="1.5" rx="2"/>
  <!-- Dots inside -->
  <circle cx="74" cy="110" r="4" fill="#333"/>
  <circle cx="98" cy="110" r="4" fill="#333"/>
  <circle cx="74" cy="134" r="4" fill="#333"/>
  <circle cx="98" cy="134" r="4" fill="#333"/>
  <circle cx="74" cy="158" r="4" fill="#333"/>
  <circle cx="98" cy="158" r="4" fill="#333"/>
  <text x="86" y="192" text-anchor="middle" font-size="14" font-weight="bold">6</text>
  <text x="86" y="210" text-anchor="middle" font-size="11" fill="#666">2×3</text>

  <!-- 3×4 = 12 -->
  <rect x="130" y="86" width="22" height="22" fill="#87CEEB" stroke="black" stroke-width="1.5" rx="2"/>
  <rect x="152" y="86" width="22" height="22" fill="#87CEEB" stroke="black" stroke-width="1.5" rx="2"/>
  <rect x="174" y="86" width="22" height="22" fill="#87CEEB" stroke="black" stroke-width="1.5" rx="2"/>
  <rect x="130" y="108" width="22" height="22" fill="#87CEEB" stroke="black" stroke-width="1.5" rx="2"/>
  <rect x="152" y="108" width="22" height="22" fill="#87CEEB" stroke="black" stroke-width="1.5" rx="2"/>
  <rect x="174" y="108" width="22" height="22" fill="#87CEEB" stroke="black" stroke-width="1.5" rx="2"/>
  <rect x="130" y="130" width="22" height="22" fill="#87CEEB" stroke="black" stroke-width="1.5" rx="2"/>
  <rect x="152" y="130" width="22" height="22" fill="#87CEEB" stroke="black" stroke-width="1.5" rx="2"/>
  <rect x="174" y="130" width="22" height="22" fill="#87CEEB" stroke="black" stroke-width="1.5" rx="2"/>
  <rect x="130" y="152" width="22" height="22" fill="#87CEEB" stroke="black" stroke-width="1.5" rx="2"/>
  <rect x="152" y="152" width="22" height="22" fill="#87CEEB" stroke="black" stroke-width="1.5" rx="2"/>
  <rect x="174" y="152" width="22" height="22" fill="#87CEEB" stroke="black" stroke-width="1.5" rx="2"/>
  <!-- Dots inside -->
  <circle cx="141" cy="97" r="3.5" fill="#333"/>
  <circle cx="163" cy="97" r="3.5" fill="#333"/>
  <circle cx="185" cy="97" r="3.5" fill="#333"/>
  <circle cx="141" cy="119" r="3.5" fill="#333"/>
  <circle cx="163" cy="119" r="3.5" fill="#333"/>
  <circle cx="185" cy="119" r="3.5" fill="#333"/>
  <circle cx="141" cy="141" r="3.5" fill="#333"/>
  <circle cx="163" cy="141" r="3.5" fill="#333"/>
  <circle cx="185" cy="141" r="3.5" fill="#333"/>
  <circle cx="141" cy="163" r="3.5" fill="#333"/>
  <circle cx="163" cy="163" r="3.5" fill="#333"/>
  <circle cx="185" cy="163" r="3.5" fill="#333"/>
  <text x="163" y="196" text-anchor="middle" font-size="14" font-weight="bold">12</text>
  <text x="163" y="214" text-anchor="middle" font-size="11" fill="#666">3×4</text>

  <!-- 4×5 = 20 -->
  <rect x="216" y="74" width="20" height="20" fill="#87CEEB" stroke="black" stroke-width="1.5" rx="2"/>
  <rect x="236" y="74" width="20" height="20" fill="#87CEEB" stroke="black" stroke-width="1.5" rx="2"/>
  <rect x="256" y="74" width="20" height="20" fill="#87CEEB" stroke="black" stroke-width="1.5" rx="2"/>
  <rect x="276" y="74" width="20" height="20" fill="#87CEEB" stroke="black" stroke-width="1.5" rx="2"/>
  <rect x="216" y="94" width="20" height="20" fill="#87CEEB" stroke="black" stroke-width="1.5" rx="2"/>
  <rect x="236" y="94" width="20" height="20" fill="#87CEEB" stroke="black" stroke-width="1.5" rx="2"/>
  <rect x="256" y="94" width="20" height="20" fill="#87CEEB" stroke="black" stroke-width="1.5" rx="2"/>
  <rect x="276" y="94" width="20" height="20" fill="#87CEEB" stroke="black" stroke-width="1.5" rx="2"/>
  <rect x="216" y="114" width="20" height="20" fill="#87CEEB" stroke="black" stroke-width="1.5" rx="2"/>
  <rect x="236" y="114" width="20" height="20" fill="#87CEEB" stroke="black" stroke-width="1.5" rx="2"/>
  <rect x="256" y="114" width="20" height="20" fill="#87CEEB" stroke="black" stroke-width="1.5" rx="2"/>
  <rect x="276" y="114" width="20" height="20" fill="#87CEEB" stroke="black" stroke-width="1.5" rx="2"/>
  <rect x="216" y="134" width="20" height="20" fill="#87CEEB" stroke="black" stroke-width="1.5" rx="2"/>
  <rect x="236" y="134" width="20" height="20" fill="#87CEEB" stroke="black" stroke-width="1.5" rx="2"/>
  <rect x="256" y="134" width="20" height="20" fill="#87CEEB" stroke="black" stroke-width="1.5" rx="2"/>
  <rect x="276" y="134" width="20" height="20" fill="#87CEEB" stroke="black" stroke-width="1.5" rx="2"/>
  <rect x="216" y="154" width="20" height="20" fill="#87CEEB" stroke="black" stroke-width="1.5" rx="2"/>
  <rect x="236" y="154" width="20" height="20" fill="#87CEEB" stroke="black" stroke-width="1.5" rx="2"/>
  <rect x="256" y="154" width="20" height="20" fill="#87CEEB" stroke="black" stroke-width="1.5" rx="2"/>
  <rect x="276" y="154" width="20" height="20" fill="#87CEEB" stroke="black" stroke-width="1.5" rx="2"/>
  <!-- Dots inside 4×5 -->
  <circle cx="226" cy="84" r="3" fill="#333"/>
  <circle cx="246" cy="84" r="3" fill="#333"/>
  <circle cx="266" cy="84" r="3" fill="#333"/>
  <circle cx="286" cy="84" r="3" fill="#333"/>
  <circle cx="226" cy="104" r="3" fill="#333"/>
  <circle cx="246" cy="104" r="3" fill="#333"/>
  <circle cx="266" cy="104" r="3" fill="#333"/>
  <circle cx="286" cy="104" r="3" fill="#333"/>
  <circle cx="226" cy="124" r="3" fill="#333"/>
  <circle cx="246" cy="124" r="3" fill="#333"/>
  <circle cx="266" cy="124" r="3" fill="#333"/>
  <circle cx="286" cy="124" r="3" fill="#333"/>
  <circle cx="226" cy="144" r="3" fill="#333"/>
  <circle cx="246" cy="144" r="3" fill="#333"/>
  <circle cx="266" cy="144" r="3" fill="#333"/>
  <circle cx="286" cy="144" r="3" fill="#333"/>
  <circle cx="226" cy="164" r="3" fill="#333"/>
  <circle cx="246" cy="164" r="3" fill="#333"/>
  <circle cx="266" cy="164" r="3" fill="#333"/>
  <circle cx="286" cy="164" r="3" fill="#333"/>
  <text x="256" y="196" text-anchor="middle" font-size="14" font-weight="bold">20</text>
  <text x="256" y="214" text-anchor="middle" font-size="11" fill="#666">4×5</text>

  <!-- ? for 5th -->
  <text x="348" y="140" text-anchor="middle" font-size="32" fill="red" font-weight="bold">?</text>
  <text x="348" y="196" text-anchor="middle" font-size="14" fill="red" font-weight="bold">?</text>
  <text x="348" y="214" text-anchor="middle" font-size="11" fill="#666">5×6</text>

  <!-- Difference arrows at bottom -->
  <text x="57" y="248" text-anchor="middle" font-size="12" fill="#888">+4</text>
  <text x="125" y="248" text-anchor="middle" font-size="12" fill="#888">+6</text>
  <text x="210" y="248" text-anchor="middle" font-size="12" fill="#888">+8</text>
  <text x="302" y="248" text-anchor="middle" font-size="12" fill="red">+10</text>

  <!-- Bottom text -->
  <text x="200" y="276" text-anchor="middle" font-size="12" fill="#555">Each rectangle grows by 1 in both dimensions</text>
</svg>