<svg xmlns="http://www.w3.org/2000/svg" viewBox="0 0 400 300">
  <!-- Front face (square - dashed for unknown) -->
  <path d="M 100 200 L 220 200 L 220 80 L 100 80 Z"
        fill="lightskyblue" fill-opacity="0.8" stroke="black" stroke-width="2" stroke-dasharray="6,3"/>

  <!-- Top face (parallelogram - dashed) -->
  <path d="M 100 80 L 220 80 L 270 30 L 150 30 Z"
        fill="lightcyan" fill-opacity="0.9" stroke="black" stroke-width="2" stroke-dasharray="6,3"/>

  <!-- Right face (parallelogram - dashed) -->
  <path d="M 220 200 L 270 150 L 270 30 L 220 80 Z"
        fill="skyblue" fill-opacity="0.7" stroke="black" stroke-width="2" stroke-dasharray="6,3"/>

  <!-- LENGTH dimension line (bottom - unknown) -->
  <line x1="100" y1="220" x2="220" y2="220" stroke="gray" stroke-width="1"/>
  <line x1="100" y1="215" x2="100" y2="225" stroke="gray" stroke-width="1"/>
  <line x1="220" y1="215" x2="220" y2="225" stroke="gray" stroke-width="1"/>
  <text x="160" y="240" font-family="Arial" font-size="14" fill="red" text-anchor="middle">? cm</text>

  <!-- HEIGHT dimension line (left - unknown) -->
  <line x1="80" y1="200" x2="80" y2="80" stroke="gray" stroke-width="1"/>
  <line x1="75" y1="200" x2="85" y2="200" stroke="gray" stroke-width="1"/>
  <line x1="75" y1="80" x2="85" y2="80" stroke="gray" stroke-width="1"/>
  <text x="60" y="145" font-family="Arial" font-size="14" fill="red" text-anchor="middle" transform="rotate(-90 60 145)">? cm</text>

  <!-- DEPTH dimension line (bottom-right angled edge - unknown) -->
  <line x1="229" y1="209" x2="279" y2="159" stroke="gray" stroke-width="1"/>
  <line x1="225" y1="205" x2="233" y2="213" stroke="gray" stroke-width="1"/>
  <line x1="275" y1="155" x2="283" y2="163" stroke="gray" stroke-width="1"/>
  <line x1="225" y1="205" x2="220" y2="200" stroke="gray" stroke-width="1" stroke-dasharray="2,2"/>
  <line x1="275" y1="155" x2="270" y2="150" stroke="gray" stroke-width="1" stroke-dasharray="2,2"/>
  <text x="270" y="198" font-family="Arial" font-size="14" fill="red" text-anchor="middle" transform="rotate(-45 270 198)">? cm</text>
</svg>
