<svg xmlns="http://www.w3.org/2000/svg" viewBox="0 0 400 300">
  <path d="M 80 150 L 240 150 L 240 70 L 80 70 Z" fill="lightskyblue" fill-opacity="0.3" stroke="black" stroke-width="2"/>
  <path d="M 80 70 L 240 70 L 280 30 L 120 30 Z" fill="lightcyan" fill-opacity="0.4" stroke="black" stroke-width="2"/>
  <path d="M 240 150 L 280 110 L 280 30 L 240 70 Z" fill="skyblue" fill-opacity="0.3" stroke="black" stroke-width="2"/>
  <path d="M 80 150 L 240 150 L 240 90 L 80 90 Z" fill="dodgerblue" fill-opacity="0.3"/>
  <path d="M 80 90 L 240 90 L 270 58 L 110 58 Z" fill="dodgerblue" fill-opacity="0.2"/>
  <path d="M 240 150 L 280 110 L 280 58 L 240 90 Z" fill="dodgerblue" fill-opacity="0.25"/>
  <line x1="80" y1="90" x2="240" y2="90" stroke="dodgerblue" stroke-width="1.5" stroke-dasharray="4,3"/>
  <line x1="80" y1="170" x2="240" y2="170" stroke="gray" stroke-width="1"/>
  <line x1="80" y1="165" x2="80" y2="175" stroke="gray" stroke-width="1"/>
  <line x1="240" y1="165" x2="240" y2="175" stroke="gray" stroke-width="1"/>
  <text x="160" y="190" font-family="Arial" font-size="14" fill="dimgray" text-anchor="middle">110 cm</text>
  <line x1="60" y1="150" x2="60" y2="70" stroke="gray" stroke-width="1"/>
  <line x1="55" y1="150" x2="65" y2="150" stroke="gray" stroke-width="1"/>
  <line x1="55" y1="70" x2="65" y2="70" stroke="gray" stroke-width="1"/>
  <text x="40" y="115" font-family="Arial" font-size="14" fill="dimgray" text-anchor="middle" transform="rotate(-90 40 115)">70 cm</text>
  <line x1="253" y1="163" x2="293" y2="123" stroke="gray" stroke-width="1"/>
  <line x1="249" y1="159" x2="257" y2="167" stroke="gray" stroke-width="1"/>
  <line x1="289" y1="119" x2="297" y2="127" stroke="gray" stroke-width="1"/>
  <line x1="249" y1="159" x2="240" y2="150" stroke="gray" stroke-width="1" stroke-dasharray="2,2"/>
  <line x1="289" y1="119" x2="280" y2="110" stroke="gray" stroke-width="1" stroke-dasharray="2,2"/>
  <text x="288" y="155" font-family="Arial" font-size="14" fill="dimgray" text-anchor="middle" transform="rotate(-45 288 155)">55 cm</text>
</svg>
